<svg width="151" height="158" viewBox="0 0 151 158" fill="none" xmlns="http://www.w3.org/2000/svg">
<g id="clarity:employee-group-solid">
<path id="Vector" d="M75.5 70.1344C86.5267 70.1344 95.4655 60.8991 95.4655 49.5067C95.4655 38.1142 86.5267 28.8789 75.5 28.8789C64.4733 28.8789 55.5344 38.1142 55.5344 49.5067C55.5344 60.8991 64.4733 70.1344 75.5 70.1344Z" fill="#340D4F"/>
<path id="Vector_2" d="M45.2161 51.5694H47.2294V49.6822C47.2417 44.1943 48.7213 38.8196 51.501 34.1658C54.2807 29.5121 58.2496 25.7652 62.9586 23.3489C61.5645 19.9895 59.3269 17.0878 56.4834 14.9522C53.6398 12.8166 50.2966 11.5267 46.8087 11.2196C43.3209 10.9124 39.8186 11.5995 36.674 13.2078C33.5293 14.8161 30.8597 17.2856 28.9486 20.3539C27.0375 23.4223 25.9564 26.975 25.82 30.6347C25.6836 34.2943 26.497 37.9243 28.1739 41.1391C29.8508 44.3539 32.3286 47.0334 35.344 48.8931C38.3594 50.7527 41.7999 51.7231 45.3 51.7011L45.2161 51.5694ZM103.854 49.5067V51.3939H105.868C109.321 51.3576 112.702 50.3478 115.653 48.4708C118.604 46.5939 121.017 43.9191 122.638 40.728C124.259 37.537 125.028 33.9477 124.864 30.338C124.7 26.7283 123.608 23.2317 121.705 20.2162C119.802 17.2006 117.157 14.7778 114.048 13.2026C110.94 11.6275 107.483 10.9583 104.042 11.2654C100.601 11.5726 97.3025 12.8448 94.4941 14.9481C91.6856 17.0513 89.471 19.908 88.0833 23.2172C92.7938 25.6241 96.767 29.3615 99.554 34.0072C102.341 38.6529 103.831 44.0216 103.854 49.5067ZM93.4942 72.1972C101.833 73.9273 109.896 76.8825 117.444 80.975C118.508 81.5855 119.471 82.3709 120.297 83.3011H142.611V68.2911C142.615 67.7154 142.469 67.1495 142.188 66.6544C141.907 66.1594 141.502 65.7541 141.017 65.4822C130.146 59.5323 118.053 56.4441 105.784 56.485H103.016C101.562 62.6677 98.2187 68.1847 93.4942 72.1972ZM27.3897 91.8156C27.382 89.6052 27.9525 87.4347 29.0394 85.5394C30.1262 83.644 31.688 82.0959 33.5555 81.0628C41.1037 76.9702 49.1669 74.0151 57.5058 72.285C52.8041 68.3066 49.4631 62.8393 47.9844 56.7044H45.2161C32.9475 56.6636 20.8541 59.7517 9.98277 65.7017C9.49776 65.9735 9.09294 66.3788 8.81203 66.8739C8.53113 67.3689 8.38481 67.9348 8.38888 68.5105V96.5556H27.3897V91.8156ZM90.0128 117.139H115.012V123.284H90.0128V117.139Z" fill="#340D4F"/>
<path id="Vector_3" d="M137.62 93.3078H108.804V88.9189C108.804 87.7549 108.362 86.6385 107.575 85.8155C106.789 84.9924 105.722 84.53 104.609 84.53C103.497 84.53 102.43 84.9924 101.644 85.8155C100.857 86.6385 100.415 87.7549 100.415 88.9189V93.3078H92.2778V80.8872C86.7601 79.6697 81.139 79.0374 75.5 79C62.262 78.9477 49.2137 82.2932 37.4984 88.7433C36.9766 89.0265 36.5399 89.4552 36.2364 89.9819C35.9329 90.5085 35.7745 91.1128 35.7786 91.7278V116.349H65.6011V143.078C65.6011 144.242 66.0431 145.358 66.8297 146.181C67.6163 147.004 68.6832 147.467 69.7956 147.467H137.62C138.732 147.467 139.799 147.004 140.586 146.181C141.372 145.358 141.814 144.242 141.814 143.078V97.6967C141.814 96.5327 141.372 95.4163 140.586 94.5932C139.799 93.7702 138.732 93.3078 137.62 93.3078ZM133.425 138.777H73.99V102.086H100.415V106.079C100.415 107.243 100.857 108.36 101.644 109.183C102.43 110.006 103.497 110.468 104.609 110.468C105.722 110.468 106.789 110.006 107.575 109.183C108.362 108.36 108.804 107.243 108.804 106.079V102.086H133.425V138.777Z" fill="#340D4F"/>
</g>
</svg>
