<svg width="26" height="20" viewBox="0 0 26 20" fill="none" xmlns="http://www.w3.org/2000/svg">
<g id="Group 35">
<path id="Vector" d="M5.37297 4.10622C5.23115 4.03341 5.07191 3.99688 4.91082 4.00021C4.74972 4.00354 4.5923 4.04662 4.45394 4.12522C4.31557 4.20383 4.201 4.31528 4.12144 4.44867C4.04187 4.58206 4.00003 4.73283 4 4.88623V16.1136C4 16.3487 4.09809 16.5742 4.27269 16.7404C4.4473 16.9066 4.68411 17 4.93103 17C5.17796 17 5.41477 16.9066 5.58938 16.7404C5.76398 16.5742 5.86207 16.3487 5.86207 16.1136V6.37061L12.5581 9.80265C12.8337 9.94447 13.1663 9.94447 13.4419 9.80265L20.1379 6.37061V16.1136C20.1379 16.3487 20.236 16.5742 20.4106 16.7404C20.5852 16.9066 20.822 17 21.069 17C21.3159 17 21.5527 16.9066 21.7273 16.7404C21.9019 16.5742 22 16.3487 22 16.1136V4.88623C22 4.73283 21.9581 4.58206 21.8786 4.44867C21.799 4.31528 21.6844 4.20383 21.5461 4.12522C21.4077 4.04662 21.2503 4.00354 21.0892 4.00021C20.9281 3.99688 20.7689 4.03341 20.627 4.10622L13 8.01572L5.37297 4.10622Z" fill="#081B3D"/>
<path id="Vector_2" fill-rule="evenodd" clip-rule="evenodd" d="M19.6499 0.278351C15.2255 -0.0927835 10.7745 -0.0927835 6.35012 0.278351L4.44908 0.436894C3.45885 0.519815 2.52733 0.913325 1.80496 1.55387C1.0826 2.19442 0.611557 3.04461 0.46792 3.96713C-0.155973 7.96777 -0.155973 12.0322 0.46792 16.0329C0.611869 16.9554 1.0832 17.8054 1.8058 18.4458C2.52839 19.0861 3.46006 19.4793 4.45033 19.562L6.34887 19.7217C10.7746 20.0928 15.2254 20.0928 19.6511 19.7217L21.5509 19.562C22.541 19.4791 23.4723 19.0857 24.1947 18.4454C24.917 17.8051 25.3882 16.9552 25.5321 16.0329C26.156 12.0322 26.156 7.96777 25.5321 3.96713C25.3884 3.04443 24.9172 2.1941 24.1945 1.55353C23.4719 0.912962 22.5401 0.519564 21.5497 0.436894L19.6499 0.278351ZM6.51793 2.0329C10.8315 1.67039 15.171 1.67039 19.4846 2.0329L21.3844 2.19262C21.9539 2.24005 22.4897 2.46614 22.9053 2.83437C23.3209 3.20259 23.5921 3.69145 23.6749 4.22198C24.2724 8.05362 24.2724 11.9464 23.6749 15.778C23.5921 16.3086 23.3209 16.7974 22.9053 17.1657C22.4897 17.5339 21.9539 17.76 21.3844 17.8074L19.4846 17.9671C15.1715 18.3288 10.831 18.3288 6.51793 17.9671L4.61815 17.8074C4.04862 17.76 3.51278 17.5339 3.09717 17.1657C2.68156 16.7974 2.41045 16.3086 2.32763 15.778C1.73009 11.9464 1.73009 8.05362 2.32763 4.22198C2.41045 3.69145 2.68156 3.20259 3.09717 2.83437C3.51278 2.46614 4.04862 2.24005 4.61815 2.19262L6.51793 2.0329Z" fill="#081B3D"/>
</g>
</svg>
