<svg width="50" height="48" viewBox="0 0 50 48" fill="none" xmlns="http://www.w3.org/2000/svg">
<path d="M1.056 23.736C1.056 21.5173 1.536 19.544 2.496 17.816C3.456 16.0667 4.78933 14.712 6.496 13.752C8.224 12.7707 10.176 12.28 12.352 12.28C15.0187 12.28 17.3013 12.984 19.2 14.392C21.0987 15.8 22.368 17.72 23.008 20.152H16.992C16.544 19.2133 15.904 18.4987 15.072 18.008C14.2613 17.5173 13.3333 17.272 12.288 17.272C10.6027 17.272 9.23733 17.8587 8.192 19.032C7.14667 20.2053 6.624 21.7733 6.624 23.736C6.624 25.6987 7.14667 27.2667 8.192 28.44C9.23733 29.6133 10.6027 30.2 12.288 30.2C13.3333 30.2 14.2613 29.9547 15.072 29.464C15.904 28.9733 16.544 28.2587 16.992 27.32H23.008C22.368 29.752 21.0987 31.672 19.2 33.08C17.3013 34.4667 15.0187 35.16 12.352 35.16C10.176 35.16 8.224 34.68 6.496 33.72C4.78933 32.7387 3.456 31.384 2.496 29.656C1.536 27.928 1.056 25.9547 1.056 23.736Z" fill="white"/>
<path d="M43.944 24.264C43.944 26.4827 43.464 28.456 42.504 30.184C41.544 31.9333 40.2107 33.288 38.504 34.248C36.776 35.2293 34.824 35.72 32.648 35.72C29.9813 35.72 27.6987 35.016 25.8 33.608C23.9013 32.2 22.632 30.28 21.992 27.848H28.008C28.456 28.7867 29.096 29.5013 29.928 29.992C30.7387 30.4827 31.6667 30.728 32.712 30.728C34.3973 30.728 35.7627 30.1413 36.808 28.968C37.8533 27.7947 38.376 26.2267 38.376 24.264C38.376 22.3013 37.8533 20.7333 36.808 19.56C35.7627 18.3867 34.3973 17.8 32.712 17.8C31.6667 17.8 30.7387 18.0453 29.928 18.536C29.096 19.0267 28.456 19.7413 28.008 20.68H21.992C22.632 18.248 23.9013 16.328 25.8 14.92C27.6987 13.5333 29.9813 12.84 32.648 12.84C34.824 12.84 36.776 13.32 38.504 14.28C40.2107 15.2613 41.544 16.616 42.504 18.344C43.464 20.072 43.944 22.0453 43.944 24.264Z" fill="white"/>
</svg>
