<svg width="541" height="450" viewBox="0 0 541 450" fill="none" xmlns="http://www.w3.org/2000/svg">
<path d="M65.9 224.4C65.9 203.6 70.4 185.1 79.4 168.9C88.4 152.5 100.9 139.8 116.9 130.8C133.1 121.6 151.4 117 171.8 117C196.8 117 218.2 123.6 236 136.8C253.8 150 265.7 168 271.7 190.8H215.3C211.1 182 205.1 175.3 197.3 170.7C189.7 166.1 181 163.8 171.2 163.8C155.4 163.8 142.6 169.3 132.8 180.3C123 191.3 118.1 206 118.1 224.4C118.1 242.8 123 257.5 132.8 268.5C142.6 279.5 155.4 285 171.2 285C181 285 189.7 282.7 197.3 278.1C205.1 273.5 211.1 266.8 215.3 258H271.7C265.7 280.8 253.8 298.8 236 312C218.2 325 196.8 331.5 171.8 331.5C151.4 331.5 133.1 327 116.9 318C100.9 308.8 88.4 296.1 79.4 279.9C70.4 263.7 65.9 245.2 65.9 224.4Z" fill="url(#paint0_linear_5_16)"/>
<path d="M475.1 225.6C475.1 246.4 470.6 264.9 461.6 281.1C452.6 297.5 440.1 310.2 424.1 319.2C407.9 328.4 389.6 333 369.2 333C344.2 333 322.8 326.4 305 313.2C287.2 300 275.3 282 269.3 259.2H325.7C329.9 268 335.9 274.7 343.7 279.3C351.3 283.9 360 286.2 369.8 286.2C385.6 286.2 398.4 280.7 408.2 269.7C418 258.7 422.9 244 422.9 225.6C422.9 207.2 418 192.5 408.2 181.5C398.4 170.5 385.6 165 369.8 165C360 165 351.3 167.3 343.7 171.9C335.9 176.5 329.9 183.2 325.7 192H269.3C275.3 169.2 287.2 151.2 305 138C322.8 125 344.2 118.5 369.2 118.5C389.6 118.5 407.9 123 424.1 132C440.1 141.2 452.6 153.9 461.6 170.1C470.6 186.3 475.1 204.8 475.1 225.6Z" fill="#340D4F"/>
<defs>
<linearGradient id="paint0_linear_5_16" x1="56" y1="225" x2="541" y2="225" gradientUnits="userSpaceOnUse">
<stop stop-color="#081B3D"/>
<stop offset="1" stop-color="#220735"/>
</linearGradient>
</defs>
</svg>
