<svg width="186" height="161" viewBox="0 0 186 161" fill="none" xmlns="http://www.w3.org/2000/svg">
<g id="streamline:information-desk-customer-solid" clip-path="url(#clip0_1_43)">
<path id="Vector" fill-rule="evenodd" clip-rule="evenodd" d="M171.625 18.6645C171.625 21.1156 171.067 23.5426 169.983 25.8071C168.9 28.0716 167.312 30.1291 165.309 31.8623C163.307 33.5955 160.93 34.9703 158.314 35.9082C155.698 36.8462 152.894 37.329 150.062 37.329C147.23 37.329 144.427 36.8462 141.81 35.9082C139.194 34.9703 136.817 33.5955 134.815 31.8623C132.813 30.1291 131.224 28.0716 130.141 25.8071C129.057 23.5426 128.499 21.1156 128.499 18.6645C128.499 13.7144 130.771 8.96698 134.815 5.46671C138.859 1.96643 144.343 0 150.062 0C155.781 0 161.265 1.96643 165.309 5.46671C169.353 8.96698 171.625 13.7144 171.625 18.6645ZM185.229 76.59C184.734 78.5026 183.501 80.2122 181.734 81.4372C179.966 82.6622 177.769 83.3294 175.504 83.329H94.302C91.6593 83.329 89.1248 82.4203 87.2562 80.8028C85.3875 79.1853 84.3377 76.9915 84.3377 74.704C84.3377 72.4165 85.3875 70.2227 87.2562 68.6052C89.1248 66.9877 91.6593 66.079 94.302 66.079H115.506C117.906 58.8768 123.229 52.6664 130.496 48.5896C137.763 44.5127 146.486 42.8433 155.061 43.8883C163.636 44.9333 171.487 48.6224 177.171 54.2775C182.856 59.9326 185.991 67.1736 186 74.6695C185.999 75.3664 185.728 76.0428 185.229 76.59ZM18.0553 38.226C18.0553 43.7495 20.5902 49.0468 25.1024 52.9526C29.6146 56.8583 35.7345 59.0525 42.1157 59.0525C48.4969 59.0525 54.6168 56.8583 59.129 52.9526C63.6412 49.0468 66.1761 43.7495 66.1761 38.226C66.1761 32.7025 63.6412 27.4052 59.129 23.4994C54.6168 19.5937 48.4969 17.3995 42.1157 17.3995C35.7345 17.3995 29.6146 19.5937 25.1024 23.4994C20.5902 27.4052 18.0553 32.7025 18.0553 38.226ZM0 103.718C-8.24141e-08 98.9312 1.08935 94.1907 3.20587 89.7678C5.32238 85.3448 8.4246 81.3261 12.3354 77.9409C16.2462 74.5558 20.889 71.8705 25.9987 70.0385C31.1084 68.2064 36.585 67.2635 42.1157 67.2635C47.6464 67.2635 53.123 68.2064 58.2327 70.0385C63.3424 71.8705 67.9852 74.5558 71.896 77.9409C75.8068 81.3261 78.909 85.3448 81.0256 89.7678C83.1421 94.1907 84.2314 98.9312 84.2314 103.718V113.585C84.2314 115.11 83.5316 116.573 82.2858 117.651C81.04 118.73 79.3504 119.335 77.5886 119.335H66.1629L60.8751 155.963C60.6744 157.353 59.894 158.633 58.6806 159.56C57.4672 160.488 55.9042 161 54.2854 161H29.9327C28.3139 161 26.751 160.488 25.5375 159.56C24.3241 158.633 23.5437 157.353 23.343 155.963L18.042 119.335H6.64286C4.88106 119.335 3.19143 118.73 1.94565 117.651C0.699871 116.573 0 115.11 0 113.585V103.718Z" fill="#081B3D"/>
</g>
<defs>
<clipPath id="clip0_1_43">
<rect width="186" height="161" fill="white"/>
</clipPath>
</defs>
</svg>
